<?xml version="1.0" encoding="utf-8"?>
<!-- Generator: Adobe Illustrator 16.0.0, SVG Export Plug-In . SVG Version: 6.00 Build 0)  -->
<!DOCTYPE svg PUBLIC "-//W3C//DTD SVG 1.1//EN" "http://www.w3.org/Graphics/SVG/1.1/DTD/svg11.dtd">
<svg version="1.1" id="图层_1" xmlns="http://www.w3.org/2000/svg" xmlns:xlink="http://www.w3.org/1999/xlink" x="0px" y="0px"
	 width="200px" height="200px" viewBox="0 0 200 200" enable-background="new 0 0 200 200" xml:space="preserve">
<path fill="#F99B1C" d="M100,0c55.229,0,100,44.771,100,100s-44.771,100-100,100S0,155.229,0,100S44.771,0,100,0z M100,12.5
	c-48.325,0-87.5,39.175-87.5,87.5c0,48.324,39.175,87.5,87.5,87.5c48.324,0,87.5-39.176,87.5-87.5
	C187.5,51.675,148.324,12.5,100,12.5z"/>
<path fill="#F99B1C" d="M62.487,62.7h25v87.5h-25V62.7z M112.5,62.7h25v87.5h-25V62.7z"/>
</svg>
