<?xml version="1.0" standalone="no"?><!DOCTYPE svg PUBLIC "-//W3C//DTD SVG 1.1//EN" "http://www.w3.org/Graphics/SVG/1.1/DTD/svg11.dtd"><svg t="1558335764923" class="icon" style="" viewBox="0 0 1024 1024" version="1.1" xmlns="http://www.w3.org/2000/svg" p-id="8828" xmlns:xlink="http://www.w3.org/1999/xlink" width="200" height="200"><defs><style type="text/css"></style></defs><path fill="#999999" d="M511.456 0.64C229.664 0.64 0.416 229.92 0.416 511.68c0 281.824 229.248 511.04 511.04 511.04 281.792 0 511.04-229.216 511.04-510.976C1022.496 230.016 793.28 0.64 511.456 0.64z m0 949.024c-241.344 0-437.952-196.672-437.952-437.952 0-241.312 196.608-437.952 437.952-437.952 241.312 0 437.92 196.608 437.92 437.952 0 241.312-196.608 437.92-437.92 437.92z" p-id="8829"></path><path fill="#999999" d="M370.88 657.216c0 40.448 28.416 56.768 63.2 36.896l251.264-145.504c34.784-19.84 34.784-53.216 0-73.12l-251.264-145.472c-34.784-19.872-63.168-3.552-63.168 36.896v290.304z" p-id="8830"></path></svg>