<?xml version="1.0" encoding="utf-8"?>
<!-- Generator: Adobe Illustrator 16.0.0, SVG Export Plug-In . SVG Version: 6.00 Build 0)  -->
<!DOCTYPE svg PUBLIC "-//W3C//DTD SVG 1.1//EN" "http://www.w3.org/Graphics/SVG/1.1/DTD/svg11.dtd">
<svg version="1.1" id="图层_1" xmlns="http://www.w3.org/2000/svg" xmlns:xlink="http://www.w3.org/1999/xlink" x="0px" y="0px"
	 width="200px" height="200px" viewBox="0 0 200 200" enable-background="new 0 0 200 200" xml:space="preserve">
<path fill="#F99B1C" d="M99.894,0.125c-55.037,0-99.813,44.781-99.813,99.813c0,55.044,44.775,99.813,99.813,99.813
	c55.038,0,99.813-44.769,99.813-99.8C199.706,44.925,154.938,0.125,99.894,0.125z M99.894,185.481
	c-47.137,0-85.537-38.413-85.537-85.538c0-47.131,38.4-85.538,85.537-85.538c47.132,0,85.531,38.4,85.531,85.538
	c0,47.131-38.399,85.531-85.531,85.531V185.481z"/>
<path fill="#F99B1C" d="M72.438,128.362c0,7.9,5.55,11.088,12.344,7.206l49.075-28.418c6.794-3.875,6.794-10.394,0-14.282
	L84.781,64.456c-6.794-3.881-12.337-0.693-12.337,7.207v56.701L72.438,128.362z"/>
</svg>
