<?xml version="1.0" standalone="no"?><!DOCTYPE svg PUBLIC "-//W3C//DTD SVG 1.1//EN" "http://www.w3.org/Graphics/SVG/1.1/DTD/svg11.dtd"><svg t="1490676278278" class="icon" style="" viewBox="0 0 1024 1024" version="1.1" xmlns="http://www.w3.org/2000/svg" p-id="6189" xmlns:xlink="http://www.w3.org/1999/xlink" width="32" height="32"><defs><style type="text/css"></style></defs><path d="M448 192v-64H0v64h192v128H0v384h192v192H0v64h448v-64H256V704h192V320H256V192h192z m-64 448H64V512h320v128z m0-256v64H64v-64h320zM960 128V64H512v64h192v128H512v384h192v192H512v64h448v-64H768V640h192V256H768V128h192z m-64 448H576V448h320v128z m0-256v64H576v-64h320z" fill="#ffffff" p-id="6190"></path></svg>