<?xml version="1.0" standalone="no"?><!DOCTYPE svg PUBLIC "-//W3C//DTD SVG 1.1//EN" "http://www.w3.org/Graphics/SVG/1.1/DTD/svg11.dtd"><svg t="1571814332157" class="icon" viewBox="0 0 1024 1024" version="1.1" xmlns="http://www.w3.org/2000/svg" p-id="19512" xmlns:xlink="http://www.w3.org/1999/xlink" width="16" height="16"><defs><style type="text/css"></style></defs><path d="M128 640V384H64v256h64z m64-384H0v64h192v-64zM128 64h704v278.4c22.4 6.4 44.8 19.2 64 28.8V0H64v192h64V64z m608 416h-64v256h192v-64H736V480z m-32-96c-176 0-320 144-320 320s144 320 320 320 320-144 320-320-144-320-320-320z m0 576c-140.8 0-256-115.2-256-256s115.2-256 256-256 256 115.2 256 256-115.2 256-256 256z m-576 0V832H64v192h428.8c-28.8-19.2-51.2-38.4-73.6-64H128z m64-256H0v64h192v-64z" p-id="19513" fill="#ffffff"></path></svg>