<?xml version="1.0" standalone="no"?><!DOCTYPE svg PUBLIC "-//W3C//DTD SVG 1.1//EN" "http://www.w3.org/Graphics/SVG/1.1/DTD/svg11.dtd"><svg t="1571800965052" class="icon" viewBox="0 0 1024 1024" version="1.1" xmlns="http://www.w3.org/2000/svg" p-id="9771" xmlns:xlink="http://www.w3.org/1999/xlink" width="16" height="16"><defs><style type="text/css"></style></defs><path d="M511.996 364.347c-13.24 0-25.884 2.317-38.13 5.561l44.815 44.816c51.569 3.443 92.612 46.14 92.612 98.569 0 54.745-44.552 99.298-99.297 99.298-52.496 0-95.126-40.977-98.635-92.545l-44.816-44.817c-3.178 12.18-5.495 24.824-5.495 38.064 0 82.217 66.661 148.944 148.946 148.944 82.217 0 148.945-66.727 148.945-148.944s-66.66-148.946-148.945-148.946z" p-id="9772" fill="#ffffff"></path><path d="M529.538 495.685L360.603 326.814c1.059-3.972 2.448-7.812 2.448-12.115v-99.297c0-13.174-5.23-25.817-14.563-35.085L199.542 31.372c-9.466-9.533-22.176-14.564-35.085-14.564a48.955 48.955 0 0 0-18.998 3.84c-18.535 7.613-30.65 25.684-30.65 45.809v49.648H65.161c-20.059 0-38.196 12.115-45.875 30.65s-3.443 39.917 10.79 54.083l148.946 148.946c9.334 9.334 21.912 14.563 35.085 14.563h99.297c4.237 0 8.143-1.39 12.115-2.448L494.456 530.9c4.833 4.769 11.253 7.215 17.54 7.215s12.644-2.448 17.543-7.215c9.73-9.729 9.73-25.486-0.001-35.216zM65.161 165.754h99.296V66.457l148.946 148.945v99.297h-99.297L65.161 165.754z" p-id="9773" fill="#ffffff"></path><path d="M511.996 190.578c-34.953 0-68.58 5.758-100.224 16.02 0.33 2.978 0.927 5.825 0.927 8.804v43.823c30.848-12.114 64.212-18.999 99.297-18.999 150.534 0 273.066 122.532 273.066 273.067 0 150.536-122.466 273.065-273.066 273.065-150.6 0-273.067-122.53-273.067-273.065 0-35.02 6.885-68.449 18.932-99.297h-43.755c-2.979 0-5.892-0.596-8.805-0.861-10.26 31.577-16.02 65.205-16.02 100.158 0 178.204 144.511 322.715 322.716 322.715s322.715-144.51 322.715-322.715-144.443-322.715-322.716-322.715z" p-id="9774" fill="#ffffff"></path><path d="M511.996 16.808c-75.135 0-146.033 17.146-209.78 47l37.27 37.337c53.223-22.243 111.477-34.688 172.51-34.688 246.388 0 446.836 200.448 446.836 446.836S758.384 960.129 511.996 960.129c-246.387 0-446.837-200.446-446.837-446.836 0-61.101 12.379-119.356 34.622-172.38l-37.27-37.402c-29.853 63.815-46.999 134.713-46.999 209.782 0 274.26 222.226 496.485 496.485 496.485 274.191 0 496.485-222.225 496.485-496.485C1008.48 239.1 786.187 16.808 511.996 16.808z" p-id="9775" fill="#ffffff"></path></svg>