<?xml version="1.0" standalone="no"?><!DOCTYPE svg PUBLIC "-//W3C//DTD SVG 1.1//EN" "http://www.w3.org/Graphics/SVG/1.1/DTD/svg11.dtd"><svg t="1571801968883" class="icon" viewBox="0 0 1024 1024" version="1.1" xmlns="http://www.w3.org/2000/svg" p-id="18580" xmlns:xlink="http://www.w3.org/1999/xlink" width="16" height="16"><defs><style type="text/css"></style></defs><path d="M1011.2 489.6c-169.6-224-345.6-332.8-528-323.2C198.4 182.4 19.2 480 9.6 492.8c-6.4 12.8-6.4 25.6 0 38.4C166.4 745.6 336 857.6 512 857.6c19.2 0 38.4 0 57.6-3.2 246.4-32 428.8-281.6 448-329.6 3.2-12.8 0-25.6-6.4-35.2z m-454.4 297.6c-163.2 19.2-323.2-73.6-476.8-278.4 41.6-64 195.2-262.4 406.4-275.2C640 227.2 793.6 320 944 512c-35.2 60.8-185.6 249.6-387.2 275.2z" p-id="18581" fill="#ffffff"></path><path d="M512 332.8c-99.2 0-182.4 83.2-182.4 182.4s83.2 182.4 182.4 182.4 182.4-83.2 182.4-182.4-83.2-182.4-182.4-182.4z m0 304c-67.2 0-118.4-54.4-118.4-118.4s54.4-118.4 118.4-118.4 118.4 54.4 118.4 118.4-51.2 118.4-118.4 118.4z" p-id="18582" fill="#ffffff"></path></svg>